<?xml version="1.0" encoding="utf-8"?>

<!-- Uploaded to: SVG Repo, www.svgrepo.com, Generator: SVG Repo Mixer Tools -->
<svg version="1.1" id="Icons" xmlns="http://www.w3.org/2000/svg" xmlns:xlink="http://www.w3.org/1999/xlink" 
	 viewBox="0 0 32 32" xml:space="preserve">
<style type="text/css">
	.st0{fill:none;stroke:#000000;stroke-width:2;stroke-linecap:round;stroke-linejoin:round;stroke-miterlimit:10;}
</style>
<path d="M14,32H0c0-0.1,0-0.1,0-0.2c0.3-1.8,1.6-3.3,3.3-3.7c0.6-0.2,1-0.6,1.2-1.2C3.6,26,3,24.7,3,23.4v-2.1c0-1,0.4-2,1.2-2.6
	c0.5-0.4,0.9-0.6,1.5-0.6c0.8-0.8,1.9-1.2,3-1.1c1.9,0.2,3.3,2,3.3,4.1v1.3c0,0.6-0.4,1-0.9,1c0,0-0.1,0-0.1,0.1
	c0,1.3-0.6,2.5-1.5,3.3c0.2,0.6,0.6,1,1.1,1.2c1.7,0.5,3,1.9,3.3,3.8C14,31.9,14,31.9,14,32z"/>
<path d="M29,8h-8.9l-2.3-3.5C17.7,4.2,17.3,4,17,4H7C5.3,4,4,5.3,4,7v9.5c0.3-0.1,0.5-0.2,0.8-0.3C6,15.3,7.4,14.9,8.9,15
	c2.9,0.3,5.1,3,5.1,6.1v1.3c0,1-0.4,1.8-1.1,2.4c-0.1,0.6-0.3,1.2-0.6,1.7c0.7,0.4,1.4,0.9,2,1.5H29c1.7,0,3-1.3,3-3V11
	C32,9.3,30.7,8,29,8z M30,23.6L21.4,10H29c0.6,0,1,0.4,1,1V23.6z"/>
</svg>