<svg xmlns="http://www.w3.org/2000/svg" viewBox="0 0 24 24" fill="currentColor">
  <path d="M12 20.5c-.8 0-1.5-.7-1.5-1.5s.7-1.5 1.5-1.5 1.5.7 1.5 1.5-.7 1.5-1.5 1.5zm-6.5-6.5c-.4 0-.8-.2-1.1-.5-.6-.6-.6-1.5 0-2.1 2.8-2.8 6.4-4.2 10-4.2s7.2 1.4 10 4.2c.6.6.6 1.5 0 2.1-.6.6-1.5.6-2.1 0-2.2-2.2-5-3.3-7.9-3.3s-5.7 1.1-7.9 3.3c-.3.3-.7.5-1 .5zm-2.8-5.7c-.4 0-.8-.2-1.1-.5-.6-.6-.5-1.5.1-2.1C5.5 2 8.7.5 12 .5s6.5 1.5 10.3 4.2c.6.5.6 1.5.1 2.1-.5.6-1.5.6-2.1.1C17 4.2 14.5 3 12 3S7 4.2 3.7 6.9c-.3.2-.7.4-1 .4zm13.7 6.2c-.4 0-.8-.2-1.1-.5-1.3-1.3-3-2-4.8-2s-3.5.7-4.8 2c-.6.6-1.5.6-2.1 0-.6-.6-.6-1.5 0-2.1 1.9-1.9 4.3-2.9 6.9-2.9s5 1 6.9 2.9c.6.6.6 1.5 0 2.1-.3.3-.7.5-1 .5z"/>
</svg>
